<?xml version="1.0" encoding="UTF-8"?>
<svg width="63px" height="85px" viewBox="0 0 63 85" version="1.1" xmlns="http://www.w3.org/2000/svg" xmlns:xlink="http://www.w3.org/1999/xlink">
    <!-- Generator: Sketch 46.2 (44496) - http://www.bohemiancoding.com/sketch -->
    <title>Logo</title>
    <desc>Created with Sketch.</desc>
    <defs></defs>
    <g id="Symbols" stroke="none" stroke-width="1" fill="none" fill-rule="evenodd">
        <g id="Logo" fill="#7847EB">
            <g>
                <g id="Group" transform="translate(3.000000, 0.000000)">
                    <path d="M28.3150091,39.569125 C34.5225545,39.569125 39.5551909,34.5073646 39.5551909,28.2638958 C39.5551909,25.14175 38.2968273,22.3150313 36.2628273,20.2692604 C34.2288273,18.2234896 31.4183727,16.9578438 28.3150091,16.9578438 C22.1074636,16.9578438 17.0748273,22.0196042 17.0748273,28.2638958 C17.0748273,31.3852188 18.3323727,34.2111146 20.3671909,36.2577083 C22.4003727,38.3034792 25.2108273,39.569125 28.3150091,39.569125 Z M13.7677364,42.8945312 C12.1256455,41.2421146 9.98119091,40.0957917 7.59864545,39.7180729 C6.39182727,39.5263333 5.2161,39.5370312 4.09437273,39.7156042 C3.28028182,39.8448021 2.47682727,39.4037187 2.17328182,38.6318229 C0.902645455,35.3994062 0.203918182,31.8756771 0.213736364,28.1848958 C0.255463636,13.0243021 12.4103727,0.453427083 27.4771909,0.01234375 C27.7611,0.00411458333 28.0417364,0.009875 28.3231909,0.009875 L28.3150091,0 L50.7953727,0 C52.3474636,0 53.7522818,0.632822917 54.7692818,1.65570833 C55.7871,2.67859375 56.4154636,4.09236458 56.4154636,5.65261458 L56.4154636,28.2638958 L56.4056455,28.2548437 C56.4056455,28.53875 56.4113727,28.8201875 56.4040091,29.1057396 C55.9646455,44.2605729 43.4661,56.4858229 28.3927364,56.5261458 C24.7231909,56.5368437 21.2205545,55.8340729 18.0051,54.5560833 C17.2384636,54.2516042 16.7999182,53.4426771 16.9283727,52.6230521 C17.1059182,51.4956562 17.1165545,50.3139479 16.9267364,49.0993229 C16.5511909,46.7029896 15.4106455,44.546125 13.7677364,42.8945312 Z" id="Fill-1"></path>
                    <path d="M11.4544091,50.8737781 C11.4544091,53.995924 8.93768182,56.5263927 5.83431818,56.5263927 C2.73013636,56.5263927 0.214227273,53.995924 0.214227273,50.8737781 C0.214227273,47.7524552 2.73013636,45.2219865 5.83431818,45.2219865 C8.93768182,45.2219865 11.4544091,47.7524552 11.4544091,50.8737781" id="Fill-3"></path>
                </g>
                <g id="type" transform="translate(0.000000, 70.000000)">
                    <path d="M0,7.4555 C0,5.14886458 1.73945455,3.38453125 4.06309091,3.38453125 C5.57181818,3.38453125 6.88009091,4.17370833 7.49618182,5.38092708 L6.06436364,6.21701042 C5.72645455,5.48955208 4.97209091,5.02542708 4.04836364,5.02542708 C2.69345455,5.02542708 1.66254545,6.063125 1.66254545,7.4555 C1.66254545,8.84869792 2.69345455,9.88639583 4.04836364,9.88639583 C4.97209091,9.88639583 5.72645455,9.40663542 6.09545455,8.6948125 L7.52727273,9.5144375 C6.88009091,10.7372917 5.57181818,11.5272917 4.06309091,11.5272917 C1.73945455,11.5272917 0,9.7465 0,7.4555" id="Fill-5"></path>
                    <path d="M12.2627455,3.44625 L12.2627455,5.25748958 C11.1696545,5.1793125 9.89247273,5.69116667 9.89247273,7.42505208 L9.89247273,11.3256771 L8.22992727,11.3256771 L8.22992727,3.58532292 L9.89247273,3.58532292 L9.89247273,4.88553125 C10.3539273,3.83302083 11.2923818,3.44625 12.2627455,3.44625" id="Fill-7"></path>
                    <path d="M20.2847727,3.58524062 L17.3295,11.5741156 C16.6062273,13.5400635 15.3437727,14.5308552 13.5732273,14.4222302 L13.5732273,12.8595115 C14.6515909,12.9212302 15.2365909,12.3632927 15.6211364,11.3420531 L15.6980455,11.1865219 L12.4343182,3.58524062 L14.2506818,3.58524062 L16.5448636,9.20493854 L18.5142273,3.58524062 L20.2847727,3.58524062 Z" id="Fill-9"></path>
                    <path d="M27.3096,7.4555 C27.3096,6.01621875 26.2631455,4.97852083 24.8771455,4.97852083 C23.4919636,4.97852083 22.4455091,6.01621875 22.4455091,7.4555 C22.4455091,8.89560417 23.4919636,9.93330208 24.8771455,9.93330208 C26.2631455,9.93330208 27.3096,8.89560417 27.3096,7.4555 M28.9721455,7.4555 C28.9721455,9.76295833 27.2326909,11.5272917 25.1389636,11.5272917 C23.9386909,11.5272917 23.0305091,11.0318958 22.4455091,10.2270833 L22.4455091,14.4223125 L20.7829636,14.4223125 L20.7829636,3.58532292 L22.4455091,3.58532292 L22.4455091,4.69955208 C23.0305091,3.87910417 23.9386909,3.38453125 25.1389636,3.38453125 C27.2326909,3.38453125 28.9721455,5.1645 28.9721455,7.4555" id="Fill-11"></path>
                    <path d="M32.1915273,5.19577083 L32.1915273,8.91123958 C32.1915273,9.90203125 32.8378909,9.88639583 34.1003455,9.82467708 L34.1003455,11.3256771 C31.5443455,11.6359167 30.5289818,10.9240937 30.5289818,8.91123958 L30.5289818,5.19577083 L29.1127091,5.19577083 L29.1127091,3.58532292 L30.5289818,3.58532292 L30.5289818,1.91397917 L32.1915273,1.41776042 L32.1915273,3.58532292 L34.1003455,3.58532292 L34.1003455,5.19577083 L32.1915273,5.19577083 Z" id="Fill-13"></path>
                    <path d="M40.8324273,7.4555 C40.8324273,6.04666667 39.7859727,5.00979167 38.4310636,5.00979167 C37.0769727,5.00979167 36.0297,6.04666667 36.0297,7.4555 C36.0297,8.86433333 37.0769727,9.90203125 38.4310636,9.90203125 C39.7859727,9.90203125 40.8324273,8.86433333 40.8324273,7.4555 M34.3679727,7.4555 C34.3679727,5.14886458 36.1835182,3.38453125 38.4310636,3.38453125 C40.6941545,3.38453125 42.4949727,5.14886458 42.4949727,7.4555 C42.4949727,9.7465 40.6941545,11.5272917 38.4310636,11.5272917 C36.1835182,11.5272917 34.3679727,9.7465 34.3679727,7.4555" id="Fill-15"></path>
                    <path d="M49.9702091,7.4555 C49.9702091,6.01621875 48.9237545,4.97852083 47.5385727,4.97852083 C46.1525727,4.97852083 45.1061182,6.01621875 45.1061182,7.4555 C45.1061182,8.89560417 46.1525727,9.93330208 47.5385727,9.93330208 C48.9237545,9.93330208 49.9702091,8.89560417 49.9702091,7.4555 M51.6327545,7.4555 C51.6327545,9.76295833 49.8933,11.5272917 47.8003909,11.5272917 C46.5993,11.5272917 45.6911182,11.0318958 45.1061182,10.2270833 L45.1061182,14.4223125 L43.4435727,14.4223125 L43.4435727,3.58532292 L45.1061182,3.58532292 L45.1061182,4.69955208 C45.6911182,3.87910417 46.5993,3.38453125 47.8003909,3.38453125 C49.8933,3.38453125 51.6327545,5.1645 51.6327545,7.4555" id="Fill-17"></path>
                    <path d="M52.5526364,11.3256771 L54.2143636,11.3256771 L54.2143636,3.58532292 L52.5526364,3.58532292 L52.5526364,11.3256771 Z M52.3219091,1.35604167 C52.3219091,0.76765625 52.7989091,0.287895833 53.3839091,0.287895833 C53.9689091,0.287895833 54.4459091,0.76765625 54.4459091,1.35604167 C54.4459091,1.92879167 53.9689091,2.4241875 53.3839091,2.4241875 C52.7989091,2.4241875 52.3219091,1.92879167 52.3219091,1.35604167 L52.3219091,1.35604167 Z" id="Fill-19"></path>
                    <path d="M59.1665727,3.38453125 C60.6753,3.38453125 61.9827545,4.17370833 62.5988455,5.38092708 L61.1670273,6.21701042 C60.8291182,5.48955208 60.0747545,5.02542708 59.1510273,5.02542708 C57.7961182,5.02542708 56.7652091,6.063125 56.7652091,7.4555 C56.7652091,8.84869792 57.7961182,9.88639583 59.1510273,9.88639583 C60.0747545,9.88639583 60.8291182,9.40663542 61.1981182,8.6948125 L62.6299364,9.5144375 C61.9827545,10.7372917 60.6753,11.5272917 59.1665727,11.5272917 C56.8421182,11.5272917 55.1026636,9.7465 55.1026636,7.4555 C55.1026636,5.14886458 56.8421182,3.38453125 59.1665727,3.38453125 Z" id="Fill-21"></path>
                </g>
            </g>
        </g>
    </g>
</svg>